# OBJ written from E:\3D\Workfiles\_Modo\Medieval\Export\v1\Fence 01 NoMid.obj
# Units	meters

o MRG NoMid
v -0.075 0.275 -1
v -0.025 0.275 -1
v -0.025 0.275 1
v -0.075 0.275 1
v -0.075 0.325 -1
v -0.025 0.325 -1
v -0.025 0.325 1
v -0.075 0.325 1
v -0.025 -0.5 -1
v 0.025 -0.5 -1
v 0.025 -0.5 1
v -0.025 -0.5 1
v -0.0125 0.51 -1
v 0.0125 0.51 -1
v 0.0125 0.51 1
v -0.0125 0.51 1
v -0.0995 -0.5 1
v 0.1005 -0.5 1
v 0.1005 -0.5 1.2
v -0.0995 -0.5 1.2
v -0.0995 0.7 1
v 0.1005 0.7 1
v 0.1005 0.7 1.2
v -0.0995 0.7 1.2
v -0.0995 -0.5 -1.00012
v 0.1005 -0.5 -1.00012
v 0.1005 -0.5 -1.20012
v -0.0995 -0.5 -1.20012
v -0.0995 0.7 -1.00012
v 0.1005 0.7 -1.00012
v 0.1005 0.7 -1.20012
v -0.0995 0.7 -1.20012
v -0.075 -0.325 -1
v -0.025 -0.325 -1
v -0.025 -0.325 1
v -0.075 -0.325 1
v -0.075 -0.275 -1
v -0.025 -0.275 -1
v -0.025 -0.275 1
v -0.075 -0.275 1
v 0.025 0.5 1
v 0.025 0.5 -1
v -0.025 0.5 1
v -0.025 0.5 -1
vn -0.707107 -0.707107 0
vn 0 -1 0
vn -0.707107 0.707107 0
vn 0 1 0
vn 0 0 -1
vn 1 0 0
vn 0 0 1
vn -1 0 0
vn 0.257662 0.966235 0
vn -0.257662 0.966235 0
vn 1 0 0
vn -1 0 0
vn 0.999923 0.0123753 0
vn -0.999923 0.0123753 0
vt 0.816118 0.890227
vt 0.816114 0.910378
vt 0.0128199 0.910378
vt 0.0128167 0.890227
vt 0.0128131 0.870073
vt 0.816114 0.870073
vt 0.0128099 0.849927
vt 0.816113 0.849927
vt 0.992542 0.492758
vt 0.912075 0.492756
vt 0.912075 0.00997826
vt 0.992542 0.0099768
vt 0.992621 0.987898
vt 0.912156 0.987908
vt 0.912156 0.505111
vt 0.992622 0.505111
vt 0.904257 0.987808
vt 0.82379 0.987809
vt 0.82379 0.505021
vt 0.904257 0.505021
vt 0.904257 0.492761
vt 0.82379 0.492762
vt 0.82379 0.00997746
vt 0.904257 0.0099768
vt 0.223733 0.915767
vt 0.223733 0.996233
vt 0.143267 0.996233
vt 0.143267 0.915767
vt 0.0131861 0.418279
vt 0.817037 0.418075
vt 0.81704 0.428116
vt 0.013191 0.42832
vt -0.00745767 0.492758
vt -0.00745767 0.0099768
vt -0.0879254 0.00997826
vt -0.0879251 0.492756
vt -0.00737941 0.987898
vt -0.00737798 0.505111
vt -0.0878443 0.505111
vt -0.0878443 0.987908
vt -0.0957432 0.987808
vt -0.0957432 0.505021
vt -0.17621 0.505021
vt -0.17621 0.987809
vt -0.0957427 0.492761
vt -0.0957427 0.0099768
vt -0.17621 0.00997746
vt -0.17621 0.492762
vt -0.776267 0.915767
vt -0.856733 0.915767
vt -0.856733 0.996233
vt -0.776267 0.996233
vt -0.183882 0.891227
vt -0.183886 0.911378
vt -0.98718 0.911378
vt -0.987183 0.891227
vt -0.987187 0.871073
vt -0.183886 0.871073
vt -0.98719 0.850927
vt -0.183887 0.850927
vt 0.0131828 0.41185
vt 0.817032 0.411645
vt 0.0131961 0.43475
vt 0.817039 0.434545
vt 0.013217 0.0102434
vt 0.816764 0.00997185
vt 0.816974 0.836219
vt 0.013426 0.836357
mtllib Fence 01 NoMid.mtl
usemtl Default
g Default
f 1/1/1 2/2/2 3/3/2 4/4/1
f 8/5/3 5/6/3 1/1/1 4/4/1
f 5/6/3 8/5/3 7/7/4 6/8/4
f 21/9/5 22/10/5 18/11/5 17/12/5
f 22/13/6 23/14/6 19/15/6 18/16/6
f 23/17/7 24/18/7 20/19/7 19/20/7
f 24/21/8 21/22/8 17/23/8 20/24/8
f 21/25/4 24/26/4 23/27/4 22/28/4
f 15/29/9 14/30/9 13/31/10 16/32/10
f 29/33/7 25/34/7 26/35/7 30/36/7
f 30/37/11 26/38/11 27/39/11 31/40/11
f 31/41/5 27/42/5 28/43/5 32/44/5
f 32/45/12 28/46/12 25/47/12 29/48/12
f 29/49/4 30/50/4 31/51/4 32/52/4
f 33/53/1 34/54/2 35/55/2 36/56/1
f 40/57/3 37/58/3 33/53/1 36/56/1
f 37/58/3 40/57/3 39/59/4 38/60/4
f 15/29/9 41/61/13 42/62/13 14/30/9
f 43/63/14 16/32/10 13/31/10 44/64/14
f 41/61/13 11/65/11 10/66/11 42/62/13
f 43/63/14 44/64/14 9/67/12 12/68/12
